<svg width="32" height="32" viewBox="0 0 32 32" fill="none" xmlns="http://www.w3.org/2000/svg">
<path d="M13.6507 5.28366L2.35736 24.137C2.12452 24.5402 2.00131 24.9974 2.00001 25.463C1.99871 25.9286 2.11935 26.3865 2.34993 26.791C2.58051 27.1956 2.91299 27.5327 3.3143 27.7688C3.71561 28.0049 4.17176 28.1319 4.63736 28.137H27.224C27.6896 28.1319 28.1458 28.0049 28.5471 27.7688C28.9484 27.5327 29.2809 27.1956 29.5115 26.791C29.742 26.3865 29.8627 25.9286 29.8614 25.463C29.8601 24.9974 29.7369 24.5402 29.504 24.137L18.2107 5.28366C17.973 4.8918 17.6383 4.56782 17.239 4.34297C16.8396 4.11812 16.389 4 15.9307 4C15.4724 4 15.0218 4.11812 14.6224 4.34297C14.2231 4.56782 13.8884 4.8918 13.6507 5.28366Z" stroke="white" stroke-width="3" stroke-linecap="round" stroke-linejoin="round"/>
<path d="M15.9307 12.137V17.4703" stroke="white" stroke-width="3" stroke-linecap="round" stroke-linejoin="round"/>
<path d="M15.9307 22.8036H15.944" stroke="white" stroke-width="3" stroke-linecap="round" stroke-linejoin="round"/>
</svg>
