<svg width="16" height="16" viewBox="0 0 16 16" fill="none" xmlns="http://www.w3.org/2000/svg">
<path d="M15.4999 8C15.4999 7.60217 15.3419 7.22064 15.0606 6.93934C14.7793 6.65803 14.3977 6.5 13.9999 6.5H11.2849C11.0058 5.51534 10.4575 4.62809 9.70159 3.93806C8.94573 3.24803 8.01233 2.78258 7.00638 2.59409C6.00042 2.40559 4.96183 2.50152 4.00742 2.87108C3.05302 3.24064 2.22065 3.86917 1.60397 4.68597C0.987282 5.50278 0.610735 6.47545 0.516683 7.49458C0.422632 8.51371 0.614807 9.53886 1.07159 10.4547C1.52838 11.3706 2.23165 12.1409 3.1023 12.6788C3.97296 13.2168 4.97645 13.5012 5.99991 13.5H13.9999C14.3977 13.5 14.7793 13.342 15.0606 13.0607C15.3419 12.7794 15.4999 12.3978 15.4999 12V11C15.4977 10.63 15.3588 10.2738 15.1099 10C15.3588 9.72618 15.4977 9.37003 15.4999 9V8ZM13.9999 7.5C14.1325 7.5 14.2597 7.55268 14.3535 7.64644C14.4472 7.74021 14.4999 7.86739 14.4999 8V9C14.4999 9.13261 14.4472 9.25978 14.3535 9.35355C14.2597 9.44732 14.1325 9.5 13.9999 9.5H11.2849C11.4277 9.01279 11.5 8.50769 11.4999 8C11.4999 7.83 11.4999 7.665 11.4749 7.5H13.9999ZM1.49991 8C1.49991 7.10998 1.76383 6.23995 2.2583 5.49993C2.75277 4.75991 3.45557 4.18313 4.27784 3.84254C5.1001 3.50195 6.0049 3.41283 6.87782 3.58646C7.75073 3.7601 8.55256 4.18868 9.18189 4.81802C9.81123 5.44735 10.2398 6.24918 10.4134 7.12209C10.5871 7.99501 10.498 8.89981 10.1574 9.72207C9.81678 10.5443 9.24 11.2471 8.49998 11.7416C7.75996 12.2361 6.88993 12.5 5.99991 12.5C4.80644 12.5 3.66185 12.0259 2.81793 11.182C1.97402 10.3381 1.49991 9.19347 1.49991 8ZM14.4999 12C14.4999 12.1326 14.4472 12.2598 14.3535 12.3536C14.2597 12.4473 14.1325 12.5 13.9999 12.5H9.14991C9.88451 11.984 10.4832 11.2978 10.8949 10.5H13.9999C14.1325 10.5 14.2597 10.5527 14.3535 10.6464C14.4472 10.7402 14.4999 10.8674 14.4999 11V12Z" fill="#2069E0"/>
<path d="M6 4.5C5.30777 4.5 4.63108 4.70527 4.05551 5.08986C3.47993 5.47444 3.03133 6.02107 2.76642 6.66061C2.50152 7.30015 2.4322 8.00388 2.56725 8.68282C2.7023 9.36175 3.03564 9.98539 3.52513 10.4749C4.01461 10.9644 4.63825 11.2977 5.31719 11.4327C5.99612 11.5678 6.69985 11.4985 7.33939 11.2336C7.97894 10.9687 8.52556 10.5201 8.91015 9.9445C9.29473 9.36892 9.5 8.69223 9.5 8C9.5 7.07174 9.13125 6.1815 8.47487 5.52513C7.8185 4.86875 6.92826 4.5 6 4.5ZM6 10.5C5.50555 10.5 5.0222 10.3534 4.61108 10.0787C4.19995 9.80397 3.87952 9.41352 3.6903 8.95671C3.50108 8.49989 3.45158 7.99723 3.54804 7.51227C3.6445 7.02732 3.8826 6.58186 4.23223 6.23223C4.58187 5.8826 5.02732 5.6445 5.51228 5.54804C5.99723 5.45157 6.49989 5.50108 6.95671 5.6903C7.41353 5.87952 7.80397 6.19995 8.07868 6.61107C8.35338 7.0222 8.5 7.50555 8.5 8C8.5 8.66304 8.23661 9.29893 7.76777 9.76777C7.29893 10.2366 6.66304 10.5 6 10.5Z" fill="#2069E0"/>
</svg>
