<svg width="32" height="32" viewBox="0 0 32 32" fill="none" xmlns="http://www.w3.org/2000/svg">
<path d="M30.9999 16C30.9999 15.2043 30.6839 14.4413 30.1213 13.8787C29.5587 13.3161 28.7956 13 27.9999 13H22.5699C22.0117 11.0307 20.915 9.25618 19.4033 7.87612C17.8916 6.49605 16.0248 5.56517 14.0129 5.18818C12.001 4.81118 9.92379 5.00304 8.01497 5.74216C6.10615 6.48128 4.44143 7.73834 3.20806 9.37195C1.97469 11.0056 1.22159 12.9509 1.03349 14.9892C0.845386 17.0274 1.22974 19.0777 2.14331 20.9095C3.05687 22.7412 4.46342 24.2817 6.20473 25.3577C7.94604 26.4337 9.95303 27.0024 11.9999 27H27.9999C28.7956 27 29.5587 26.6839 30.1213 26.1213C30.6839 25.5587 30.9999 24.7956 30.9999 24V22C30.9955 21.2599 30.7177 20.5476 30.2199 20C30.7177 19.4524 30.9955 18.7401 30.9999 18V16ZM27.9999 15C28.2652 15 28.5195 15.1054 28.7071 15.2929C28.8946 15.4804 28.9999 15.7348 28.9999 16V18C28.9999 18.2652 28.8946 18.5196 28.7071 18.7071C28.5195 18.8946 28.2652 19 27.9999 19H22.5699C22.8554 18.0256 23.0002 17.0154 22.9999 16C22.9999 15.66 22.9999 15.33 22.9499 15H27.9999ZM2.99995 16C2.99995 14.22 3.52779 12.4799 4.51672 10.9999C5.50565 9.51982 6.91126 8.36627 8.5558 7.68508C10.2003 7.00389 12.0099 6.82566 13.7558 7.17293C15.5016 7.5202 17.1052 8.37736 18.3639 9.63603C19.6226 10.8947 20.4797 12.4984 20.827 14.2442C21.1743 15.99 20.9961 17.7996 20.3149 19.4441C19.6337 21.0887 18.4801 22.4943 17.0001 23.4832C15.52 24.4722 13.78 25 11.9999 25C9.613 25 7.32381 24.0518 5.63599 22.364C3.94816 20.6761 2.99995 18.3869 2.99995 16ZM28.9999 24C28.9999 24.2652 28.8946 24.5196 28.7071 24.7071C28.5195 24.8946 28.2652 25 27.9999 25H18.2999C19.7691 23.968 20.9666 22.5955 21.7899 21H27.9999C28.2652 21 28.5195 21.1054 28.7071 21.2929C28.8946 21.4804 28.9999 21.7348 28.9999 22V24Z" fill="#161515"/>
<path d="M12 9C10.6155 9 9.26216 9.41054 8.11101 10.1797C6.95987 10.9489 6.06266 12.0421 5.53285 13.3212C5.00303 14.6003 4.86441 16.0078 5.13451 17.3656C5.4046 18.7235 6.07129 19.9708 7.05026 20.9497C8.02922 21.9287 9.2765 22.5954 10.6344 22.8655C11.9922 23.1356 13.3997 22.997 14.6788 22.4672C15.9579 21.9373 17.0511 21.0401 17.8203 19.889C18.5895 18.7378 19 17.3845 19 16C19 14.1435 18.2625 12.363 16.9497 11.0503C15.637 9.7375 13.8565 9 12 9ZM12 21C11.0111 21 10.0444 20.7068 9.22215 20.1573C8.39991 19.6079 7.75904 18.827 7.38061 17.9134C7.00217 16.9998 6.90315 15.9945 7.09608 15.0245C7.289 14.0546 7.76521 13.1637 8.46447 12.4645C9.16373 11.7652 10.0546 11.289 11.0246 11.0961C11.9945 10.9031 12.9998 11.0022 13.9134 11.3806C14.8271 11.759 15.6079 12.3999 16.1574 13.2221C16.7068 14.0444 17 15.0111 17 16C17 17.3261 16.4732 18.5979 15.5355 19.5355C14.5979 20.4732 13.3261 21 12 21Z" fill="#161515"/>
</svg>
