<svg width="32" height="32" viewBox="0 0 32 32" fill="none" xmlns="http://www.w3.org/2000/svg">
<path fill-rule="evenodd" clip-rule="evenodd" d="M13.3333 28H18.6667C19.4027 28 20 27.4027 20 26.6667C20 25.9307 19.4027 25.3333 18.6667 25.3333H13.3333C12.5973 25.3333 12 25.9307 12 26.6667C12 27.4027 12.5973 28 13.3333 28ZM24 15.6853V10.664C24 6.24666 20.42 2.66666 16.0027 2.66666H15.9973C11.58 2.66666 8.00002 6.24666 8.00002 10.664V15.6853L5.47467 20.7373C5.268 21.1507 5.28933 21.6413 5.532 22.0347C5.776 22.428 6.20402 22.6667 6.66668 22.6667H25.3334C25.796 22.6667 26.224 22.428 26.468 22.0347C26.7107 21.6413 26.732 21.1507 26.5254 20.7373L24 15.6853ZM21.3334 16C21.3334 16.2067 21.3813 16.4107 21.4747 16.596L23.176 20H8.82403L10.5254 16.596C10.6187 16.4107 10.6667 16.2067 10.6667 16V10.664C10.6667 7.71999 13.0533 5.33332 15.9973 5.33332H16.0027C18.9467 5.33332 21.3334 7.71999 21.3334 10.664V16Z" fill="#fff"/>
<circle cx="22" cy="5" r="4" fill="#E22C2C"/>
</svg>
