<svg width="24" height="25" viewBox="0 0 24 25" fill="none" xmlns="http://www.w3.org/2000/svg">
<path d="M6 2.79196L3 6.81881V20.9128C3 21.4468 3.21071 21.9589 3.58579 22.3365C3.96086 22.7141 4.46957 22.9262 5 22.9262H19C19.5304 22.9262 20.0391 22.7141 20.4142 22.3365C20.7893 21.9589 21 21.4468 21 20.9128V6.81881L18 2.79196H6Z" stroke="#2069E0" stroke-width="2" stroke-linecap="round" stroke-linejoin="round"/>
<path d="M3 6.8188H21" stroke="#2069E0" stroke-width="2" stroke-linecap="round" stroke-linejoin="round"/>
<path d="M16 10.8456C16 11.9136 15.5786 12.9379 14.8284 13.6931C14.0783 14.4482 13.0609 14.8725 12 14.8725C10.9391 14.8725 9.92172 14.4482 9.17157 13.6931C8.42143 12.9379 8 11.9136 8 10.8456" stroke="#2069E0" stroke-width="2" stroke-linecap="round" stroke-linejoin="round"/>
</svg>
