<svg width="28" height="28" viewBox="0 0 28 28" fill="none" xmlns="http://www.w3.org/2000/svg">
<path d="M27.1252 14C27.1252 13.3038 26.8486 12.6361 26.3563 12.1438C25.864 11.6516 25.1963 11.375 24.5002 11.375H19.7489C19.2604 9.65184 18.3008 8.09916 16.9781 6.8916C15.6553 5.68405 14.0219 4.86952 12.2615 4.53965C10.501 4.20979 8.68351 4.37766 7.0133 5.02439C5.34308 5.67112 3.88645 6.77105 2.80725 8.20045C1.72805 9.62986 1.06909 11.332 0.904501 13.1155C0.739911 14.899 1.07622 16.693 1.87559 18.2958C2.67496 19.8986 3.90569 21.2465 5.42934 22.188C6.95298 23.1294 8.7091 23.6271 10.5002 23.625H24.5002C25.1963 23.625 25.864 23.3484 26.3563 22.8562C26.8486 22.3639 27.1252 21.6962 27.1252 21V19.25C27.1213 18.6025 26.8782 17.9792 26.4427 17.5C26.8782 17.0208 27.1213 16.3975 27.1252 15.75V14ZM24.5002 13.125C24.7322 13.125 24.9548 13.2172 25.1189 13.3813C25.283 13.5454 25.3752 13.7679 25.3752 14V15.75C25.3752 15.9821 25.283 16.2046 25.1189 16.3687C24.9548 16.5328 24.7322 16.625 24.5002 16.625H19.7489C19.9987 15.7724 20.1254 14.8885 20.1252 14C20.1252 13.7025 20.1252 13.4137 20.0814 13.125H24.5002ZM2.62515 14C2.62515 12.4425 3.08701 10.9199 3.95233 9.62488C4.81765 8.32984 6.04755 7.32049 7.48652 6.72445C8.92549 6.12841 10.5089 5.97245 12.0365 6.27631C13.5641 6.58017 14.9673 7.33019 16.0686 8.43153C17.17 9.53287 17.92 10.9361 18.2238 12.4637C18.5277 13.9913 18.3717 15.5747 17.7757 17.0136C17.1797 18.4526 16.1703 19.6825 14.8753 20.5478C13.5802 21.4131 12.0577 21.875 10.5002 21.875C8.41157 21.875 6.40854 21.0453 4.93169 19.5685C3.45484 18.0916 2.62515 16.0886 2.62515 14ZM25.3752 21C25.3752 21.2321 25.283 21.4546 25.1189 21.6187C24.9548 21.7828 24.7322 21.875 24.5002 21.875H16.0127C17.2982 20.972 18.346 19.7711 19.0664 18.375H24.5002C24.7322 18.375 24.9548 18.4672 25.1189 18.6313C25.283 18.7954 25.3752 19.0179 25.3752 19.25V21Z" fill="#FDFDFD"/>
<path d="M10.5 7.875C9.28859 7.875 8.10439 8.23422 7.09714 8.90725C6.08988 9.58027 5.30483 10.5369 4.84124 11.6561C4.37765 12.7753 4.25636 14.0068 4.49269 15.1949C4.72903 16.3831 5.31238 17.4744 6.16897 18.331C7.02557 19.1876 8.11694 19.771 9.30507 20.0073C10.4932 20.2436 11.7247 20.1224 12.8439 19.6588C13.9631 19.1952 14.9197 18.4101 15.5928 17.4029C16.2658 16.3956 16.625 15.2114 16.625 14C16.625 12.3755 15.9797 10.8176 14.831 9.66897C13.6824 8.52031 12.1245 7.875 10.5 7.875ZM10.5 18.375C9.63471 18.375 8.78885 18.1184 8.06938 17.6377C7.34992 17.1569 6.78916 16.4737 6.45803 15.6742C6.1269 14.8748 6.04026 13.9951 6.20907 13.1465C6.37788 12.2978 6.79456 11.5183 7.40641 10.9064C8.01827 10.2946 8.79782 9.87787 9.64648 9.70906C10.4951 9.54025 11.3748 9.62689 12.1742 9.95803C12.9737 10.2892 13.657 10.8499 14.1377 11.5694C14.6184 12.2888 14.875 13.1347 14.875 14C14.875 15.1603 14.4141 16.2731 13.5936 17.0936C12.7731 17.9141 11.6603 18.375 10.5 18.375Z" fill="#FDFDFD"/>
</svg>
